<svg xmlns="http://www.w3.org/2000/svg" fill="none" viewBox="0 0 189 58" height="58" width="189">
<path fill="white" d="M15.1285 35.3379C10.5982 30.5661 6.00268 24.5116 1.94893 18.5322C1.35817 20.0825 0.89796 21.6949 0.587891 23.3627C5.15081 28.722 10.0466 32.7693 15.1285 35.3379Z"></path>
<path fill="white" d="M4.97769 12.6934C4.2531 13.7705 3.60032 14.8965 3.02588 16.0618C8.04574 23.5687 13.343 30.2988 17.9484 34.9368C14.3353 29.2903 9.98775 21.8356 4.97769 12.6934Z"></path>
<path fill="white" d="M8.52268 8.40436C7.80463 9.12241 7.12248 9.87311 6.47949 10.6662C10.3178 17.6151 16.0721 27.8049 21.0169 35.4816L8.52268 8.40436Z"></path>
<path fill="white" d="M28.6967 38.7227H28.7816C31.0075 38.7129 33.0605 37.3813 34.0201 35.3022L47.1899 6.78556C42.2027 2.59146 35.7728 0.0554199 28.7391 0.0554199C21.7152 0.0554199 15.2854 2.58167 10.3047 6.76924L23.4582 35.3022C24.4177 37.3747 26.4707 38.7162 28.6967 38.7227ZM28.7391 18.3234C31.2491 18.3234 33.2857 20.3601 33.2857 22.87C33.2857 25.3734 31.2491 27.4068 28.7391 27.4068C26.2292 27.4068 24.1925 25.3701 24.1925 22.87C24.1925 20.3568 26.2292 18.3234 28.7391 18.3234Z"></path>
<path fill="white" d="M51.018 10.6924C50.375 9.89923 49.6928 9.14201 48.9748 8.42395L36.4316 35.5567C40.9652 28.5067 46.4975 18.9076 51.018 10.6924Z"></path>
<path fill="white" d="M41.5493 32.9948C45.8184 28.3666 50.3487 22.3937 54.5036 16.1727C53.9194 14.9618 53.2438 13.7966 52.5029 12.6934C47.4145 21.9596 43.0539 29.4404 39.4897 35.0054C40.2306 34.2873 40.9063 33.6215 41.5493 32.9948Z"></path>
<path fill="white" d="M56.8902 23.376C56.5802 21.7082 56.1232 20.0828 55.5292 18.5292C51.4754 24.5184 46.8799 30.5729 42.3496 35.3349C47.438 32.7597 52.3338 28.7223 56.8902 23.376Z"></path>
<path fill="white" d="M40.058 38.8826C38.5566 39.4669 37.3065 40.1327 36.2392 40.9258C36.1641 40.9846 36.0891 41.0433 36.014 41.0923C35.1132 41.7516 34.3037 42.5186 33.6118 43.377C33.3866 43.6512 33.1679 43.9188 32.9525 44.1701C32.2279 45.0285 31.5914 46.0305 31.0757 47.1403L28.84 51.9871C28.8237 52.0198 28.7812 52.0459 28.7388 52.0459C28.6964 52.0459 28.6637 52.0198 28.6376 51.9871L26.4018 47.1403C25.8862 46.0305 25.2497 45.0285 24.5251 44.1701C24.2901 43.9025 24.0584 43.612 23.8168 43.3117C23.151 42.486 22.3905 41.7451 21.555 41.1249C21.4473 41.0401 21.3461 40.965 21.2384 40.8834C20.2135 40.1066 19.1038 39.4897 17.919 39.0556C11.6621 36.7611 5.699 32.4756 0.179767 26.3852C0.121017 27.1522 0.0883789 27.9192 0.0883789 28.7026C0.0883789 44.5324 12.9155 57.3628 28.7388 57.3628C44.5621 57.3628 57.3892 44.5357 57.3892 28.7026C57.3892 27.9192 57.3566 27.1522 57.2978 26.3852C51.9352 32.3189 46.1386 36.5392 40.058 38.8826Z"></path>
<path fill="white" d="M73.7705 8.46973V36.1899H77.5664V24.4171H88.4156L88.4547 21.0063H77.5664V12.0339H90.4881L90.5273 8.46973H73.7705Z"></path>
<path fill="white" d="M100.978 23.921H112.787V20.5429H100.978V12.0698H114.093V8.46973H97.2183V36.1899H114.128V32.6225H100.978V23.921Z"></path>
<path fill="white" d="M143.246 36.1899V8.46973H139.528V30.093L125.34 8.46973H121.583V36.1899H125.34V14.5667L139.528 36.1899H143.246Z"></path>
<path fill="white" d="M156.615 8.46973H152.858V36.1899H156.615V8.46973Z"></path>
<path fill="white" d="M164.046 36.1899H168.688L176.048 25.4158L183.258 36.1899H188.088L178.388 22.3119L187.974 8.46973H183.372L176.048 19.2438L168.727 8.46973H163.932L173.711 22.3478L164.046 36.1899Z"></path>
<path fill="white" d="M79.5672 46.5135L75.0336 46.5037V42.4728H73.7705V51.7847H75.0336V47.6265L79.5672 47.6362V51.7847H80.8434V42.4728H79.5672V46.5135Z"></path>
<path fill="white" d="M85.0864 47.6624H89.0553V46.5298H85.0864V43.6804H89.4926V42.4728H83.8232V51.7847H89.5057V50.5868H85.0864V47.6624Z"></path>
<path fill="white" d="M95.8409 42.4728H94.5777L91.1768 51.7879H92.4791L93.3179 49.4673H97.2345L98.0473 51.7879H99.3887L95.9747 42.4728H95.8409ZM93.703 48.4L95.3023 43.9905L96.8494 48.4H93.703Z"></path>
<path fill="white" d="M102.676 42.4728H101.4V51.7847H101.596H106.479V50.6358H102.676V42.4728Z"></path>
<path fill="white" d="M106.876 43.6674H109.647V51.7847H110.91V43.6674H113.655V42.4728H106.876V43.6674Z"></path>
<path fill="white" d="M121.534 46.5135L117.001 46.5037V42.4728H115.738V51.7847H117.001V47.6265L121.534 47.6362V51.7847H122.811V42.4728H121.534V46.5135Z"></path>
<path fill="white" d="M134.159 46.7097L132.599 46.3246C131.813 46.119 131.31 45.6914 131.31 44.9472C131.31 44.0562 132.018 43.4621 133.128 43.4621C134.133 43.4621 134.881 43.9517 135.06 44.8656L136.258 44.5458C136.026 43.2304 134.894 42.3035 133.164 42.3035C131.284 42.3035 130.06 43.3871 130.06 44.9831C130.06 46.1842 130.755 47.134 132.354 47.5224L133.902 47.9043C134.714 48.1001 135.191 48.5538 135.191 49.2947C135.191 50.2217 134.43 50.7667 133.245 50.7667C132.048 50.7667 131.274 50.2119 131.134 49.3078L129.923 49.6309C130.168 51.0866 131.457 51.9352 133.223 51.9352C135.233 51.9352 136.457 50.8255 136.457 49.2294C136.454 48.0251 135.733 47.1112 134.159 46.7097Z"></path>
<path fill="white" d="M142.711 50.6884C140.88 50.6884 139.607 49.3274 139.607 47.121C139.607 44.9668 140.831 43.5535 142.724 43.5535C144.053 43.5535 145.058 44.2455 145.43 45.4466L146.641 45.019C146.164 43.4197 144.722 42.3035 142.724 42.3035C140.084 42.3035 138.266 44.2357 138.266 47.134C138.266 50.0356 140.071 51.9287 142.698 51.9287C144.542 51.9287 146.099 51.0017 146.706 49.4318L145.508 48.9161C145.133 49.9442 144.062 50.6884 142.711 50.6884Z"></path>
<path fill="white" d="M150.342 42.4728H149.079V51.7879H150.342V42.4728Z"></path>
<path fill="white" d="M154.584 47.6624H158.553V46.5298H154.584V43.6804H158.99V42.4728H153.321V51.7847H159.003V50.5868H154.584V47.6624Z"></path>
<path fill="white" d="M167.927 49.7382L163.162 42.4728H161.899V51.7847H163.162V44.5192L167.927 51.7847H169.177V42.4728H167.927V49.7382Z"></path>
<path fill="white" d="M176.038 50.6884C174.207 50.6884 172.934 49.3274 172.934 47.121C172.934 44.9668 174.158 43.5535 176.051 43.5535C177.379 43.5535 178.384 44.2455 178.757 45.4466L179.967 45.019C179.491 43.4197 178.048 42.3035 176.051 42.3035C173.41 42.3035 171.592 44.2357 171.592 47.134C171.592 50.0356 173.397 51.9287 176.025 51.9287C177.869 51.9287 179.426 51.0017 180.033 49.4318L178.835 48.9161C178.46 49.9442 177.389 50.6884 176.038 50.6884Z"></path>
<path fill="white" d="M183.669 47.6624H187.638V46.5298H183.669V43.6804H188.075V42.4728H182.406V51.7847H188.088V50.5868H183.669V47.6624Z"></path>
</svg>
